HIERARCHY
ROOT root
{
	OFFSET 0.000000 0.000000 0.000000
	CHANNELS 6 Xposition Yposition Zposition Zrotation Yrotation Xrotation
	JOINT lhip
	{
		OFFSET 0.058581 -0.082280 -0.017664
		CHANNELS 3 Zrotation Yrotation Xrotation
		JOINT lknee
		{
			OFFSET 0.043451 -0.386469 0.008037
			CHANNELS 3 Zrotation Yrotation Xrotation
			JOINT lankle
			{
				OFFSET -0.014790 -0.426874 -0.037428
				CHANNELS 3 Zrotation Yrotation Xrotation
				JOINT ltoe
				{
					OFFSET 0.041054 -0.060286 0.122042
					CHANNELS 3 Zrotation Yrotation Xrotation
					End Site
					{
						OFFSET 0.000000 0.000000 0.000000
					}
				}
			}
		}
	}
	JOINT rhip
	{
		OFFSET -0.060310 -0.090513 -0.013543
		CHANNELS 3 Zrotation Yrotation Xrotation
		JOINT rknee
		{
			OFFSET -0.043257 -0.383688 -0.004843
			CHANNELS 3 Zrotation Yrotation Xrotation
			JOINT rankle
			{
				OFFSET 0.019056 -0.420046 -0.034562
				CHANNELS 3 Zrotation Yrotation Xrotation
				JOINT rtoe
				{
					OFFSET -0.034840 -0.062106 0.130323
					CHANNELS 3 Zrotation Yrotation Xrotation
					End Site
					{
						OFFSET 0.000000 0.000000 0.000000
					}
				}
			}
		}
	}
	JOINT lowerback
	{
		OFFSET 0.004439 0.124404 -0.038385
		CHANNELS 3 Zrotation Yrotation Xrotation
		JOINT upperback
		{
			OFFSET 0.004488 0.137956 0.026820
			CHANNELS 3 Zrotation Yrotation Xrotation
			JOINT chest
			{
				OFFSET -0.002265 0.056032 0.002855
				CHANNELS 3 Zrotation Yrotation Xrotation
				JOINT lowerneck
				{
					OFFSET -0.013390 0.211636 -0.033468
					CHANNELS 3 Zrotation Yrotation Xrotation
					JOINT upperneck
					{
						OFFSET 0.010113 0.088937 0.050410
						CHANNELS 3 Zrotation Yrotation Xrotation
						End Site
						{
							OFFSET 0.000000 0.000000 0.000000
						}
					}
				}
				JOINT lclavicle
				{
					OFFSET 0.071702 0.114000 -0.018898
					CHANNELS 3 Zrotation Yrotation Xrotation
					JOINT lshoulder
					{
						OFFSET 0.122921 0.045205 -0.019046
						CHANNELS 3 Zrotation Yrotation Xrotation
						JOINT lelbow
						{
							OFFSET 0.255332 -0.015649 -0.022946
							CHANNELS 3 Zrotation Yrotation Xrotation
							JOINT lwrist
							{
								OFFSET 0.265709 0.012698 -0.007375
								CHANNELS 3 Zrotation Yrotation Xrotation
								End Site
								{
									OFFSET 0.000000 0.000000 0.000000
								}
							}
						}
					}
				}
				JOINT rclavicle
				{
					OFFSET -0.082954 0.112472 -0.023707
					CHANNELS 3 Zrotation Yrotation Xrotation
					JOINT rshoulder
					{
						OFFSET -0.113228 0.046853 -0.008472
						CHANNELS 3 Zrotation Yrotation Xrotation
						JOINT relbow
						{
							OFFSET -0.260127 -0.014369 -0.031269
							CHANNELS 3 Zrotation Yrotation Xrotation
							JOINT rwrist
							{
								OFFSET -0.269108 0.006794 -0.006027
								CHANNELS 3 Zrotation Yrotation Xrotation
								End Site
								{
									OFFSET 0.000000 0.000000 0.000000
								}
							}
						}
					}
				}
			}
		}
	}
}
MOTION
Frames: 14
Frame Time: 0.033333
1.217284 0.719950 1.014692 -92.706489 0.696682 91.129950 0.324117 -1.107449 -0.554112 -0.436925 -10.270328 1.920852 2.129983 17.044247 -7.581372 0.000000 -0.000000 0.000000 1.020852 -0.964545 -0.905077 -2.806258 5.478072 2.760704 3.317904 -14.606999 -6.962533 0.000000 -0.000000 0.000000 0.361332 1.465408 2.486116 0.462607 -3.812311 0.704480 0.226874 0.260217 2.287318 -0.444307 0.229196 -0.687724 2.620640 -0.781747 -6.493921 -8.706570 -2.173755 2.934401 -54.039477 -4.433978 4.471017 9.943324 -7.476356 -3.817424 -15.244791 -0.538424 5.317602 6.451782 5.317785 3.439929 55.530655 -4.680879 4.517730 -7.847058 21.482940 11.664110 8.271894 0.481879 6.047510 
1.218843 0.720637 1.014740 -93.182656 0.716678 91.176344 0.430967 -0.878044 -0.896411 -0.636464 -10.310027 2.325879 2.084667 17.469619 -7.717197 0.000000 -0.000000 0.000000 1.055667 -0.903445 -1.395604 -2.695346 5.978734 3.223199 3.318112 -14.697874 -6.932436 0.000000 -0.000000 0.000000 0.292168 1.527919 3.041105 0.402340 -3.596506 0.577998 0.266421 0.250756 2.831155 -0.415697 -0.072449 -1.129576 2.616980 -0.655245 -7.209896 -8.689839 -1.731824 2.404895 -51.288240 -3.498436 3.917117 9.159819 -6.714764 -2.769924 -13.832099 -1.803816 6.196745 6.025842 4.892582 2.702425 53.457385 -5.307296 4.366333 -6.354185 21.331389 13.214520 8.117681 0.932560 6.347962 
1.220810 0.721309 1.014763 -93.476752 0.838607 91.371983 0.718161 -0.817308 -1.744594 -1.020704 -10.056137 3.264526 2.298679 17.492862 -7.795440 0.000000 -0.000000 0.000000 1.185232 -0.796075 -2.136949 -2.475044 6.386858 3.893184 3.267619 -14.854183 -7.082768 0.000000 -0.000000 0.000000 0.455661 1.322786 4.170755 0.319487 -3.554992 -0.278316 0.221554 0.128178 3.095294 -0.691259 0.075227 -1.816639 2.536110 -0.462691 -7.395079 -8.158837 -0.752083 2.261856 -49.203272 -2.436198 2.901432 8.753210 -8.059255 -3.894951 -17.534396 0.081725 5.760278 5.820453 4.360889 3.050603 51.056696 -5.060769 4.224501 -5.241764 21.667109 14.872830 11.539678 -0.641911 7.239827 
1.223297 0.722309 1.014406 -93.727881 0.957172 91.480185 1.030684 -0.881205 -2.919187 -1.672273 -10.186796 5.035655 2.346274 18.080772 -8.710593 0.000000 -0.000000 0.000000 1.397813 -0.610346 -3.034049 -2.252322 6.841885 4.978560 3.062712 -15.316106 -7.367931 0.000000 -0.000000 0.000000 0.505896 1.082202 5.314513 0.272975 -3.680354 -0.656564 0.197272 0.114385 3.418424 -0.733999 0.091297 -2.526786 2.582571 0.105343 -7.588304 -8.200742 -0.099968 2.013952 -46.533695 -1.054883 2.261876 7.353041 -8.744794 -3.466150 -17.802188 0.340966 5.894371 5.916979 4.160999 2.915333 48.195432 -4.887327 4.040463 -3.756434 21.471614 16.117687 11.899022 -1.021748 8.025588 
1.226406 0.723068 1.013537 -94.353611 1.105078 91.709749 1.469520 -0.689723 -4.501023 -2.527038 -9.838574 7.287348 2.360819 18.352844 -9.713541 0.000000 -0.000000 0.000000 1.544974 -0.238210 -4.362835 -1.882707 7.250100 6.441445 2.902334 -15.482794 -7.736511 0.000000 -0.000000 0.000000 0.676884 0.958151 6.150696 0.100896 -3.670983 -0.460861 0.038564 0.157169 3.777475 -0.550197 0.219526 -3.735138 2.575781 0.386742 -7.953341 -7.981826 0.147393 1.813041 -44.138220 0.354586 1.671567 6.572824 -8.770154 -3.093591 -19.051485 0.271551 5.646944 5.566455 4.187918 2.495526 45.994517 -5.118084 3.704186 -2.894127 21.813816 16.990542 12.646873 -1.128641 8.075591 
1.230443 0.724123 1.012065 -95.034359 1.151711 92.236415 1.956582 -0.726586 -7.004820 -3.837891 -9.316776 10.523370 2.645041 19.058616 -11.072690 0.000000 -0.000000 0.000000 1.486881 -0.059714 -6.426155 -1.093478 8.093450 8.619557 2.548177 -15.640878 -8.413897 0.000000 -0.000000 0.000000 0.703093 0.956509 7.974786 -0.200300 -3.603060 -1.740969 -0.036522 0.104988 4.079301 -0.380736 0.267365 -5.242978 2.791511 0.859049 -7.980276 -8.392337 0.817878 1.600491 -40.899765 2.140572 0.529302 6.027366 -9.169942 -4.488598 -20.102322 0.915434 5.550005 5.705080 4.018048 2.353033 43.263538 -5.002882 3.027901 -1.520732 20.911267 17.925950 13.672449 -1.895123 9.154453 
1.234075 0.724941 1.009055 -95.469882 1.247697 92.709989 2.574809 -0.679470 -9.840924 -5.456913 -8.988884 14.420639 3.156641 19.683258 -12.800303 0.000000 -0.000000 0.000000 1.475297 -0.082078 -8.994086 -0.045682 8.585896 11.886014 2.203610 -15.736858 -9.880537 0.000000 -0.000000 0.000000 0.639140 1.137560 9.432965 -0.377896 -3.655459 -1.466884 -0.095564 0.232132 3.836861 0.173592 0.464210 -7.233802 2.837815 0.733481 -8.201758 -8.364739 1.653556 1.250207 -37.957575 3.263237 -0.658631 5.686627 -9.533835 -6.039059 -20.477642 1.644345 6.105080 5.888353 3.860706 2.787459 40.943247 -5.476486 2.225322 -1.092850 20.658393 17.995765 13.828511 -2.331575 9.689877 
1.240132 0.726398 1.004288 -95.991796 1.315086 93.082534 3.275535 -0.489805 -13.061987 -7.153958 -7.978297 19.003234 3.540065 20.139401 -14.933091 0.000000 -0.000000 0.000000 1.416932 0.196401 -12.354304 1.351165 8.712928 16.541014 1.904403 -15.920939 -11.967302 0.000000 -0.000000 0.000000 0.454365 1.009226 12.252816 -0.688465 -3.196350 -2.182427 -0.025871 0.382854 3.921086 0.642719 0.968030 -10.090239 2.982299 0.604118 -8.920850 -8.385465 2.439425 1.026972 -35.218243 4.311740 -1.412816 5.591325 -9.803861 -7.038951 -20.404409 2.083620 6.443209 6.002688 3.445940 3.472653 38.971089 -6.550454 1.394392 -0.575507 21.548372 18.222473 13.415136 -2.456409 9.001830 
1.246026 0.727321 0.996303 -96.072399 1.331215 93.541614 3.992996 -0.085108 -17.016453 -9.230103 -7.156979 24.680745 3.678600 20.602847 -17.458035 0.000000 -0.000000 0.000000 1.206932 0.228298 -16.168029 2.901304 8.217847 21.955460 1.250274 -16.057280 -14.139963 0.000000 -0.000000 0.000000 0.226757 0.713112 15.295303 -0.927938 -2.868591 -2.850170 0.071111 0.386354 3.749220 0.752501 1.160956 -12.167286 3.097754 0.780675 -10.661114 -8.463024 3.043793 1.125995 -32.613063 5.626165 -2.142570 5.340920 -9.962154 -7.692182 -20.297934 2.365583 7.029914 5.695535 2.916035 3.930877 37.485968 -7.640498 0.556357 0.546755 21.598603 19.557247 13.192725 -2.728448 8.636387 
1.252554 0.728009 0.984162 -95.712734 1.430771 93.961514 4.860428 0.451052 -21.524001 -11.237964 -5.734736 30.988733 3.757089 20.630057 -19.841757 0.000000 -0.000000 0.000000 0.967715 0.076243 -20.264013 4.367217 7.007375 27.994995 0.688913 -16.033852 -16.958031 0.000000 -0.000000 0.000000 0.045656 0.321956 19.115547 -1.116103 -2.713147 -3.979924 0.309082 0.334948 3.510223 0.790833 1.425378 -14.273621 3.398160 0.835321 -12.699584 -8.935733 3.499781 1.543258 -30.344583 6.896953 -2.866591 5.348164 -10.087186 -8.404352 -19.179883 2.388560 8.345728 6.001527 2.664554 4.886757 36.205749 -9.101781 -0.541909 0.755345 21.441899 19.948957 12.351966 -2.745939 8.486529 
1.259946 0.728236 0.966358 -94.873708 1.572330 94.785361 5.590984 0.830974 -27.013242 -12.523072 -3.677445 37.870095 4.269632 20.461795 -22.361513 0.000000 -0.000000 0.000000 0.732341 -0.125531 -25.367823 5.571831 5.102943 34.837901 -0.255703 -16.298135 -19.535354 0.000000 -0.000000 0.000000 -0.088453 -0.226530 23.123696 -1.119593 -2.510034 -5.018198 0.574883 0.253954 2.820028 0.586228 1.817077 -17.370057 3.554345 0.586645 -14.508494 -9.120062 4.405454 1.867728 -29.467108 7.579598 -3.357668 5.341161 -10.564401 -8.577326 -16.195558 1.590960 9.867113 6.482944 1.784528 6.055640 35.507626 -10.117415 -1.825516 0.770772 20.054565 19.580214 9.875136 -1.570177 8.592757 
1.267665 0.728481 0.943546 -93.948899 1.766137 96.093065 6.298421 1.010551 -33.329620 -13.694022 -1.968194 44.993323 4.649584 20.189748 -24.607114 0.000000 -0.000000 0.000000 0.210508 -0.185189 -31.269864 6.417709 2.494600 41.994360 -1.011661 -16.421315 -22.177534 0.000000 -0.000000 0.000000 0.013494 -0.784790 27.383887 -1.231018 -2.119638 -7.431344 0.841115 0.090995 2.930284 -0.341420 1.661558 -19.895355 4.102942 0.467452 -17.949430 -10.197080 5.078383 1.825636 -29.214703 8.239801 -3.854042 5.624288 -11.137907 -9.522397 -11.866421 -0.119302 11.017785 7.659806 0.600891 6.505583 35.402360 -11.653170 -3.611115 0.574077 19.464980 19.517249 6.155413 -0.088804 9.826844 
1.275203 0.729046 0.917369 -93.052692 1.916980 97.582540 7.100245 0.658761 -40.045881 -14.362646 0.059170 52.293816 5.054984 20.242430 -26.761865 0.000000 -0.000000 0.000000 -0.289079 0.076546 -37.529281 6.464924 -0.025978 49.322945 -1.790122 -16.865689 -24.801741 0.000000 -0.000000 0.000000 0.053733 -1.120319 31.300505 -1.366677 -1.949130 -9.369895 1.100418 0.097331 2.704753 -1.034474 0.915296 -22.302538 5.014025 0.536014 -21.135790 -12.186167 4.953600 2.029128 -29.854837 8.830689 -4.075213 6.618298 -11.675983 -11.143742 -6.965437 -2.395575 10.959774 9.080227 0.240581 7.009871 36.860322 -13.202101 -5.414569 -0.162077 19.105035 18.002391 2.111293 1.675840 9.905707 
1.281726 0.729789 0.890087 -92.054703 2.004077 98.883629 8.117066 -0.032196 -46.270067 -14.736959 2.243451 59.056171 5.469739 20.192447 -28.968418 0.000000 -0.000000 0.000000 -1.068730 0.711812 -43.218214 5.829056 -2.621207 56.208171 -2.333302 -17.363478 -27.641933 0.000000 -0.000000 0.000000 -0.112470 -0.942616 35.294301 -1.240206 -1.615945 -11.002106 1.638050 -0.064441 2.087375 -1.529517 0.493284 -24.670255 5.272859 0.174975 -23.770056 -13.751916 4.730204 1.808896 -33.291686 7.973673 -3.407166 8.803385 -12.088985 -12.852085 -3.685054 -3.812910 10.493905 10.670552 -0.062387 6.953676 39.231610 -13.993949 -5.719684 -2.039636 19.195050 15.798067 -0.531389 2.707170 8.569464 
